<?xml version="1.0" encoding="utf-8"?>
<svg id="master-artboard" viewBox="0 0 1364.983642578125 507.9273681640625" version="1.1" xmlns="http://www.w3.org/2000/svg" x="0px" y="0px" style="enable-background:new 0 0 1400 980;" width="1364.983642578125px" height="507.9273681640625px"><defs><style id="ee-google-fonts">@import url(https://fonts.googleapis.com/css?family=Anton:400|Roboto+Slab:100,300,400,700);</style><path id="text-path-0" d="M 778.8464965820312 213.4612274169922 A 100 18 0 0 1 988.3533935546875 213.4612274169922 A 100 18 0 0 1 778.8464965820312 213.4612274169922 Z" style="fill: none; stroke: red; stroke-width: 2;"/><path id="text-path-1" d="M 664.5464477539062 37.96122741699219 A 100 19 0 0 1 876.5812377929688 37.96122741699219 A 100 19 0 0 1 664.5464477539062 37.96122741699219" style="fill: none; stroke: red; stroke-width: 2;"/><path id="text-path-2" d="M 765.3650512695312 211.70851135253906 A 100 17 0 0 1 991.5017700195312 211.70851135253906 A 100 17 0 0 1 765.3650512695312 211.70851135253906" style="fill: none; stroke: red; stroke-width: 2;"/><path id="path-1" d="M 765.3650512695312 211.70851135253906 A 100 17 0 0 1 991.5017700195312 211.70851135253906 A 100 17 0 0 1 765.3650512695312 211.70851135253906" style="fill: none; stroke: red; stroke-width: 2;"/><filter id="filter" x="17" y="14" width="231" height="299" filterUnits="userSpaceOnUse">
      <feFlood result="flood" flood-color="#3bb270"/>
      <feComposite result="composite" operator="in" in2="SourceGraphic"/>
      <feBlend result="blend" in2="SourceGraphic"/>
    </filter><filter id="filter-2" x="200.75" y="86.094" width="617.563" height="105.844" filterUnits="userSpaceOnUse">
      <feFlood result="flood" flood-color="#3bb270"/>
      <feComposite result="composite" operator="in" in2="SourceGraphic"/>
      <feBlend result="blend" in2="SourceGraphic"/>
    </filter><filter id="filter-3" x="169" y="203" width="672" height="110" filterUnits="userSpaceOnUse">
      <feFlood result="flood" flood-color="#3bb270"/>
      <feComposite result="composite" operator="in" in2="SourceGraphic"/>
      <feBlend result="blend" in2="SourceGraphic"/>
    </filter></defs><rect id="ee-background" x="0" y="0" width="1364.983642578125" height="507.9273681640625" style="fill: rgb(0, 25, 255); fill-opacity: 0; pointer-events: none;"/>


<path d="M 880.3870239257812 239.90606689453125" style="fill: rgb(63, 61, 61); fill-opacity: 1; stroke: rgb(0, 0, 0); stroke-opacity: 1; stroke-width: 0; paint-order: fill;" transform="matrix(1, 0, 0, 1, -18.156639099121094, -25.93805503845215)"/><path d="M 864.144775390625 229.48651123046875" style="fill: rgb(63, 61, 61); fill-opacity: 1; stroke: rgb(0, 0, 0); stroke-opacity: 1; stroke-width: 0; paint-order: fill;" transform="matrix(1, 0, 0, 1, -18.156639099121094, -25.93805503845215)"/><g transform="matrix(1.6298022270202637, 0, 0, 1.6298022270202637, -15.665471076965332, -14.60849666595459)"><metadata><!--?xpacket begin="﻿" id="W5M0MpCehiHzreSzNTczkc9d"?-->
                        
<!--?xpacket end="w"?--></metadata><path id="K" class="cls-1" d="M 142.783 156.608 L 239.683 13.991000000000014 L 165.07 13.991000000000014 L 88.328 138.677 C 84.70933333333333 145.90633333333332 82.12533333333334 151.46633333333332 80.57600000000001 155.357 L 79.607 155.357 L 79.607 13.991 L 17.006999999999998 13.991 L 17.006999999999998 312.986 L 79.607 312.986 L 79.607 166.616 L 80.576 166.616 C 83.934 175.096 86.38866666666667 180.58666666666667 87.94 183.08800000000002 L 168.946 312.98800000000006 L 248.01299999999998 312.98800000000006 C 248.01299999999998 312.98800000000006 204.605 233 169 190 C 151.339 168.672 142.783 156.608 142.783 156.608 Z" style="fill: rgb(21, 97, 44); fill-rule: evenodd; filter: url('#filter');"/><path id="ingdom" class="cls-2" d="M 200.735 87.8 L 200.735 105.645 L 209.851 105.645 L 209.851 172.314 L 200.735 172.314 L 200.735 190.159 L 243.5 190.159 L 243.5 172.318 L 234.385 172.318 L 234.385 105.649 L 243.5 105.649 L 243.5 87.8 L 200.735 87.8 Z M 350.914 87.8 L 327.746 87.8 L 327.746 144.4 C 327.6269269251034 149.0957212492013 327.83007031230494 153.79408032098692 328.354 158.46200000000002 L 328.054 158.46200000000002 C 326.38266666666664 155.70333333333335 324.55966666666666 152.91966666666667 322.585 150.11100000000002 L 279.36 87.8 L 252.926 87.8 L 252.926 190.163 L 276.094 190.163 L 276.094 133.915 C 276.17169968684254 128.3882678743476 275.9687718529177 122.86115442646535 275.486 117.35499999999999 L 275.786 117.35499999999999 C 277.451109656647 120.2849345345605 279.2768944403376 123.12059296652748 281.255 125.84899999999999 L 326.147 190.16299999999998 L 350.90999999999997 190.16299999999998 L 350.90999999999997 87.8 L 350.914 87.8 Z M 459.014 131.841 L 412.676 131.841 L 412.676 150.257 L 434.476 150.257 L 434.476 170.244 C 431.032 171.81466666666665 426.37333333333333 172.6 420.5 172.6 C 410.726 172.6 402.9653333333333 169.721 397.218 163.963 C 391.4706666666667 158.20499999999998 388.598 150.06866666666667 388.6 139.554 C 388.6 129.18133333333333 391.803 120.88933333333334 398.209 114.678 C 404.615 108.46666666666665 412.9073333333333 105.36166666666666 423.086 105.363 C 435.24 105.363 445.52 107.64733333333334 453.926 112.216 L 453.926 90.587 C 445.11466666666666 87.587 434.936 86.087 423.39 86.087 C 405.0566666666667 86.087 390.371 91.15366666666667 379.33299999999997 101.287 C 368.29499999999996 111.42033333333335 362.77399999999994 124.533 362.77 140.625 C 362.77 156.61366666666666 367.8213333333333 169.16466666666668 377.924 178.278 C 388.02666666666664 187.3913333333333 401.83866666666665 191.94799999999998 419.35999999999996 191.94799999999998 C 435.15999999999997 191.94799999999998 448.37699999999995 189.069 459.01099999999997 183.31099999999998 L 459.01099999999997 131.845 L 459.014 131.841 Z M 512.572 190.159 C 530.144 190.159 544.2106666666666 185.40033333333332 554.772 175.88299999999998 C 565.3333333333335 166.36566666666664 570.6093333333334 153.63799999999998 570.6 137.7 C 570.6 104.43666666666664 551.2553333333334 87.80533333333331 512.566 87.80599999999998 L 473.982 87.80599999999998 L 473.982 190.163 L 512.5690000000001 190.163 L 512.572 190.159 Z M 510.521 106.573 C 521.357 106.573 529.776 109.36866666666666 535.778 114.96 C 541.7800000000001 120.55133333333333 544.7800000000001 128.22466666666665 544.778 137.98 C 544.778 148.30666666666667 541.7523333333334 156.46766666666667 535.701 162.463 C 529.6496666666667 168.45833333333331 521.3066666666667 171.45633333333333 510.672 171.457 L 498.517 171.457 L 498.517 106.577 L 510.517 106.577 L 510.521 106.573 Z M 667.421 177.173 C 677.371 167.32233333333332 682.3463333333334 154.35566666666665 682.3470000000001 138.273 C 682.3470000000001 122.61699999999999 677.5486666666668 110.00633333333333 667.9520000000001 100.441 C 658.3553333333334 90.87566666666667 645.7836666666667 86.09233333333334 630.237 86.091 C 613.779 86.091 600.562 91.08733333333333 590.586 101.08 C 580.61 111.07266666666666 575.6220000000001 124.15933333333334 575.622 140.34 C 575.622 155.66266666666667 580.534 168.096 590.358 177.64 C 600.1819999999999 187.18399999999997 612.8926666666666 191.95466666666664 628.4899999999999 191.952 C 644.492 191.94933333333333 657.4686666666666 187.02266666666668 667.42 177.172 L 667.421 177.173 Z M 649.3 114.785 C 654.1113333333333 120.687 656.5166666666667 128.94333333333333 656.516 139.554 C 656.516 149.738 654.0346666666667 157.697 649.072 163.431 C 644.1093333333333 169.16500000000002 637.3996666666667 172.03166666666667 628.943 172.031 C 620.7389999999999 172.031 614.1056666666666 169.08066666666667 609.043 163.18 C 603.9803333333334 157.27933333333334 601.447 149.261 601.443 139.125 C 601.443 129.13233333333332 603.9763333333333 121.10199999999999 609.043 115.03399999999999 C 614.1096666666667 108.966 620.9463333333333 105.93266666666666 629.553 105.934 C 637.909 105.934 644.4913333333333 108.88433333333333 649.3 114.785 Z M 818.32 87.8 L 783.3 87.8 L 761.043 148.32999999999998 C 759.3308965738785 153.17246920122406 757.8857253505228 158.10521348091288 756.714 163.106 L 756.258 163.106 C 755.4243598198606 158.1185106598902 754.1274109785261 153.21963291477297 752.384 148.47299999999998 L 730.131 87.8 L 694.2 87.8 L 694.2 190.163 L 716.3000000000001 190.163 L 716.3000000000001 133.558 C 716.3000000000001 125.94533333333332 715.9710000000001 117.09433333333332 715.3130000000001 107.005 L 716 107.005 C 717.5693333333334 114.66699999999999 718.7086666666667 119.42566666666666 719.418 121.28099999999999 L 745.4 190.163 L 765.453 190.163 L 790.976 120.56300000000002 C 792.4221435098308 116.12524219917346 793.5641234777169 111.59407416743797 794.394 107.00100000000002 L 795 107.00100000000002 C 794.3919999999999 114.99633333333335 794.088 122.30100000000002 794.088 128.91500000000002 L 794.088 190.15900000000002 L 818.32 190.15900000000002 L 818.32 87.8 Z" style="fill: rgb(21, 97, 44); fill-rule: evenodd; filter: url('#filter-2');"/><path id="Shape_1_copy_3" data-name="Shape 1 copy 3" class="cls-3" d="M 160.44336486816405 197.70583837890624 L 841.01 203.009 L 841.01 313.009 L 169.01 313.009 L 148.0013330078125 203.21296423339845 L 160.44336486816405 197.70583837890624 Z" style="fill: rgb(21, 97, 44); fill-rule: evenodd; filter: url('#filter-3');"/><path id="Car_Van_Hire" data-name="Car &amp; Van Hire" class="cls-4" d="M 244.685 276.832 C 239.9868872454046 279.3999649329174 234.69337124701175 280.6802202089614 229.341 280.543 C 222.96766666666667 280.543 217.81900000000002 278.53933333333333 213.895 274.532 C 209.971 270.52466666666663 208.00866666666667 265.1453333333333 208.008 258.394 C 208.008 251.28133333333332 210.108 245.59866666666667 214.30800000000002 241.346 C 218.50800000000004 237.09333333333333 223.98500000000004 234.96733333333336 230.73900000000003 234.96800000000002 C 235.59137157182778 234.91217175367996 240.38258447525718 236.05424502826406 244.68800000000005 238.293 L 244.68800000000005 231.37300000000002 C 240.25746676443396 229.7201510866527 235.54750502460072 228.94574330496076 230.82100000000005 229.09300000000002 C 222.12366666666674 229.09300000000002 214.9443333333334 231.82633333333334 209.28300000000004 237.293 C 203.6216666666667 242.75966666666667 200.7906666666667 249.92366666666666 200.79000000000005 258.785 C 200.79000000000005 267.0316666666667 203.30633333333338 273.6933333333334 208.33900000000006 278.77000000000004 C 213.37166666666673 283.8466666666667 220.07166666666672 286.38500000000005 228.43900000000005 286.38500000000005 C 234.92100000000005 286.38500000000005 240.33633333333339 285.3026666666667 244.68500000000006 283.13800000000003 L 244.68500000000006 276.838 L 244.685 276.832 Z M 278.716 230.01999999999998 L 271.57800000000003 230.01999999999998 L 249.01400000000004 285.453 L 256.68600000000004 285.453 L 262.552 269.91299999999995 L 287.5 269.91299999999995 L 293.736 285.453 L 301.36699999999996 285.453 L 278.716 230.01999999999998 Z M 264.85 264.076 L 274 240.457 C 274.4345416284254 239.25362449984203 274.7507043285476 238.0107433750025 274.944 236.74599999999998 L 275.108 236.74599999999998 C 275.29689997490317 238.00733129875618 275.59809695821826 239.24926685808555 276.008 240.457 L 285.239 264.076 L 264.85 264.076 Z M 340.317 268.79200000000003 C 339.52366666666666 267.58133333333336 338.8056666666667 266.5183333333334 338.163 265.603 C 337.5656486975782 264.7447321982551 336.9150373383469 263.9247882098341 336.21500000000003 263.148 C 335.5889506593912 262.45510536141586 334.8947896310298 261.8269432351167 334.14300000000003 261.273 C 333.3456519524622 260.7055615459903 332.48524967568005 260.23240740833273 331.579 259.863 L 331.579 259.708 C 333.4615625374014 259.2625148632195 335.2760121997537 258.56700385357044 336.974 257.64000000000004 C 338.5109272191895 256.7998827958344 339.8966744503912 255.7088603410002 341.074 254.41200000000003 C 342.2089167017562 253.15052202703203 343.09938364042813 251.68901688233723 343.7 250.10200000000003 C 344.33107515174805 248.40194638164482 344.64395084246127 246.60028409650468 344.623 244.78700000000003 C 344.67461655467497 242.55335213437854 344.21131893417413 240.33780405829614 343.269 238.31200000000004 C 342.3928364139414 236.5020230939615 341.1076323763505 234.9206812060662 339.515 233.69300000000004 C 337.82568877644917 232.41231297858482 335.90278206282903 231.47344808371975 333.854 230.92900000000003 C 331.53353845639685 230.304588935141 329.13891091318146 229.9987845204452 326.736 230.02000000000004 L 309.179 230.02000000000004 L 309.179 285.45300000000003 L 316.07099999999997 285.45300000000003 L 316.07099999999997 261.87300000000005 L 321.73299999999995 261.87300000000005 C 322.90342764092605 261.8579098002673 324.07016937087076 262.00737121013793 325.19899999999996 262.31700000000006 C 326.23104864238826 262.6168791424964 327.2029272276274 263.09435849076533 328.07099999999997 263.72800000000007 C 329.03718232681996 264.4485715041359 329.9104847383033 265.28593416383757 330.671 266.22100000000006 C 331.6275484184217 267.39183444878006 332.5048339061811 268.6252457287826 333.29699999999997 269.91300000000007 L 343.143 285.4530000000001 L 351.34299999999996 285.4530000000001 L 340.317 268.79200000000003 Z M 325.507 235.89200000000002 C 329.363 235.89200000000002 332.31 236.723 334.348 238.38500000000002 C 336.4041436556206 240.08657397285828 337.537154426665 242.65836387982714 337.40500000000003 245.324 C 337.4289267833888 246.85967685529585 337.12197315684335 248.38250790311875 336.50500000000005 249.78900000000002 C 335.9300816591337 251.0807706204972 335.0763221216672 252.22924794973366 334.00500000000005 253.15200000000002 C 332.88777410368624 254.09506595362782 331.59687228518794 254.8104973318383 330.20500000000004 255.258 C 328.66237731292165 255.7604479833334 327.04831088910174 256.00868788534746 325.42600000000004 255.99300000000002 L 316.07200000000006 255.99300000000002 L 316.07200000000006 235.9 L 325.50800000000004 235.9 L 325.507 235.89200000000002 Z M 435.519 286.067 C 436.5752483521234 285.89291225767914 437.613040615137 285.62107764121254 438.619 285.255 L 438.619 279.38 C 437.71566666666666 279.6886666666667 436.8403333333334 279.94633333333337 435.99300000000005 280.153 C 435.1749525533526 280.3552295753125 434.33566791570036 280.4589652105966 433.49300000000005 280.46200000000005 C 432.4974162307292 280.47740818332807 431.5062091498697 280.32702048069774 430.56000000000006 280.01700000000005 C 429.6577677377755 279.6982891699781 428.8134027363549 279.2349016570796 428.06000000000006 278.64500000000004 C 427.1843684781681 277.9613638668036 426.38026151458115 277.190761358334 425.6600000000001 276.345 C 424.86666666666673 275.43100000000004 423.99166666666673 274.355 423.0350000000001 273.117 C 424.3775302350953 271.3562235113285 425.6041190974672 269.5099934869764 426.7070000000001 267.59000000000003 C 427.8831656027099 265.54969113287456 428.90469567177985 263.4240662275516 429.7630000000001 261.23100000000005 C 430.64151111764534 258.9898741926986 431.34103421826376 256.68265172659204 431.8550000000001 254.33100000000005 C 432.36971412594824 252.00808957012714 432.63124014544496 249.63624974732727 432.63500000000005 247.25700000000003 C 432.5796666666667 246.20033333333336 432.5316666666667 245.29200000000003 432.49100000000004 244.53200000000004 C 432.4410808378617 243.7157661264212 432.3104432284395 242.90648288608105 432.10100000000006 242.11600000000004 L 425.57 242.11600000000004 C 425.7882696420614 242.962549325575 425.95953140372507 243.82052735282338 426.08299999999997 244.68600000000004 C 426.2096999899897 245.60182503768516 426.27152064515377 246.52545903705027 426.268 247.45000000000005 C 426.28361830678625 251.18745411215514 425.71612968949967 254.9044708342411 424.58599999999996 258.46700000000004 C 423.4830685447994 261.93809488994907 421.79178486729074 265.19381597390156 419.58599999999996 268.09200000000004 C 418.49066666666664 266.57200000000006 417.383 265.10300000000007 416.263 263.68500000000006 C 415.1469973780899 262.2749378890882 413.9337013286441 260.9446895904075 412.63199999999995 259.70400000000006 C 411.3205240310426 258.4577733198014 409.8994476853428 257.33222462606716 408.38599999999997 256.34100000000007 C 406.77907284594625 255.29809487978576 405.0582459632319 254.44221081572235 403.25699999999995 253.79000000000008 C 406.43050368685687 252.71083843910367 409.31460698402907 250.91900674201656 411.68799999999993 248.55200000000008 C 413.5845973534167 246.44016706557335 414.59142913752913 243.67693335490594 414.49799999999993 240.8400000000001 C 414.5218416608401 239.16849587187264 414.1569096845714 237.51432015997713 413.43199999999996 236.0080000000001 C 412.7232166991308 234.56859964837275 411.70775483882414 233.30191764489132 410.45699999999994 232.29700000000008 C 409.10362865381967 231.2233760283743 407.5585511552169 230.41673222955814 405.90399999999994 229.92000000000007 C 404.0086608033672 229.34699466207908 402.03693721972405 229.06676503812346 400.05699999999996 229.08900000000008 C 398.01733267057284 229.07204772876764 395.98605180133995 229.3519804282433 394.027 229.92000000000007 C 392.2711280824136 230.42058422779075 390.6277085964786 231.25366653048266 389.186 232.37400000000008 C 387.8285354706457 233.44423937086634 386.7279439516988 234.80485887619045 385.965 236.35600000000008 C 384.63729013611777 239.26531213242825 384.43283438090896 242.5629626005348 385.39099999999996 245.6140000000001 C 385.76778734163645 246.74705299178993 386.2919480676035 247.82563388391088 386.95 248.8220000000001 C 387.57591077336537 249.76966695594922 388.3127992602969 250.63916179930706 389.145 251.4120000000001 C 389.9168128053158 252.1334952111536 390.73924468422354 252.79885964483407 391.606 253.4030000000001 C 387.7405901554732 254.8478298632802 384.27928997578454 257.2009789504779 381.514 260.2640000000001 C 379.1260484367603 263.0826329092587 377.8560318854627 266.6798862974274 377.945 270.3730000000001 C 377.8982100699249 272.7352412939483 378.3964355367058 275.0764903630153 379.401 277.2150000000001 C 380.3538287868612 279.1784189932778 381.7515292438558 280.89250240464946 383.483 282.2210000000001 C 385.3710375758153 283.6440687595871 387.5159008343192 284.68950709787964 389.8 285.3 C 392.4466823124238 286.02034647157177 395.18018012303423 286.37166630666275 397.923 286.344 C 400.19908746417804 286.3608011993034 402.46979658253775 286.1206138409602 404.692 285.628 C 406.66650899387446 285.1864963051245 408.59105652317015 284.54553888938597 410.43600000000004 283.715 C 412.11451355351613 282.9576620282613 413.7151013926076 282.0383036648428 415.21500000000003 280.96999999999997 C 416.56831529099213 280.00974495260897 417.83785411855513 278.93657484456486 419.01000000000005 277.76199999999994 C 420.0493333333334 279.1019999999999 421.04100000000005 280.30199999999996 421.98500000000007 281.36199999999997 C 422.86380822493265 282.3599328250745 423.8470962719149 283.26074938963313 424.91800000000006 284.049 C 425.92470390449654 284.7809078809782 427.037619908551 285.35422824660674 428.2180000000001 285.74899999999997 C 429.5508581121969 286.1705835711412 430.9432671443522 286.3732140237806 432.34100000000007 286.349 C 433.40618244846473 286.34404096622586 434.4691345703242 286.2510578243362 435.519 286.071 L 435.519 286.067 Z M 392.791 280.16700000000003 C 391.29134082388356 279.75840298138945 389.87978480473197 279.077032282673 388.627 278.15700000000004 C 387.4433600599557 277.2754007670769 386.4810037998219 276.13056998348526 385.81600000000003 274.81300000000005 C 385.10905764122566 273.3709667796036 384.7575969217104 271.78064988142415 384.79100000000005 270.17500000000007 C 384.75265919809505 268.4690640344048 385.0587615218522 266.77291704595274 385.69100000000003 265.18800000000005 C 386.27429511630936 263.7985130023314 387.1166020608495 262.53267702290464 388.17300000000006 261.458 C 389.2792195467052 260.3490957011429 390.54443348521096 259.4111387516767 391.9270000000001 258.675 C 393.46190999331327 257.8507017713207 395.0520448156976 257.1336542095014 396.6860000000001 256.529 C 398.6295227973042 257.21694479462235 400.5157134665723 258.05722083799867 402.3270000000001 259.042 C 403.9710814152725 259.95577459836556 405.51167896377433 261.04441882890615 406.92200000000014 262.289 C 408.4678314844673 263.666870640345 409.89518339203244 265.1721632534972 411.18900000000014 266.789 C 412.59700000000015 268.529 414.1353333333335 270.623 415.80400000000014 273.07099999999997 C 414.78289935940387 274.1346874073195 413.686024113508 275.12294459733744 412.52200000000016 276.02799999999996 C 411.27522953338126 276.9953546159805 409.9273729639463 277.82485639400244 408.5020000000002 278.50199999999995 C 406.95200097618607 279.2358586474814 405.32951166712456 279.80562353125106 403.6610000000002 280.20199999999994 C 401.7784707105889 280.64205722357514 399.8502106337171 280.85623364394144 397.91700000000014 280.8399999999999 C 396.18581791662234 280.85730138569886 394.4606357552695 280.6338287763794 392.791 280.176 L 392.791 280.16700000000003 Z M 405.632 247.07800000000003 C 403.3485459806462 248.89610589772812 400.7268724015917 250.24280247727668 397.919 251.04000000000002 C 396.99141153175214 250.6035231751424 396.11140538516173 250.0723694279784 395.293 249.455 C 394.4827601707384 248.8466478459378 393.75852834731705 248.1314983537922 393.14 247.329 C 392.5314292517082 246.54436072171399 392.0471053816672 245.67082393711294 391.704 244.739 C 391.3569682908662 243.78551088000046 391.18323400164843 242.7776488054354 391.19100000000003 241.763 C 391.12252027917214 239.63398339077733 392.0196342282819 237.58800496145042 393.632 236.196 C 395.45244366822726 234.75664700026252 397.73434539370106 234.028713232321 400.052 234.148 C 401.0098139250618 234.15199078962394 401.96248588261926 234.2882790126441 402.88300000000004 234.553 C 403.82518855719724 234.81663265806748 404.709042330737 235.2560148606516 405.48800000000006 235.84799999999998 C 406.2784599758402 236.45431716554577 406.9348914893671 237.2176571318356 407.41600000000005 238.08999999999997 C 407.9480979974068 239.10156751761323 408.2095621455705 240.23354537086666 408.17500000000007 241.37599999999998 C 408.22587757608693 243.5645394160622 407.29257013507726 245.66053579438667 405.632 247.087 L 405.632 247.07800000000003 Z M 505.654 230.02 L 489.039 273.894 C 488.4010914123441 275.49996866164577 487.9468711670757 277.1729349543276 487.685 278.88100000000003 L 487.521 278.88100000000003 C 487.29169878488676 277.208571020353 486.8929826141189 275.5637830507465 486.331 273.97200000000004 L 470.044 230.02 L 462.37199999999996 230.02 L 483.7049999999999 285.45300000000003 L 491.2949999999999 285.45300000000003 L 513.08 230.02 L 505.65400000000005 230.02 L 505.654 230.02 Z M 538.783 230.02 L 531.645 230.02 L 509.08099999999996 285.45300000000003 L 516.752 285.45300000000003 L 522.6189999999999 269.913 L 547.5629999999999 269.913 L 553.7989999999999 285.45300000000003 L 561.4289999999999 285.45300000000003 L 538.783 230.02 Z M 524.917 264.076 L 534.065 240.45700000000002 C 534.4990751636749 239.25348136457407 534.8152261682925 238.01064621759693 535.009 236.746 L 535.173 236.746 C 535.3618999749032 238.0073312987562 535.6630969582183 239.24926685808558 536.073 240.45700000000002 L 545.303 264.076 L 524.917 264.076 Z M 616.671 230.02000000000004 L 609.779 230.02000000000004 L 609.779 269.06300000000005 C 609.7147390157445 271.7880522973141 609.8517782407405 274.51413013579656 610.189 277.21900000000005 L 610.025 277.21900000000005 C 609.669 276.54900000000004 608.876 275.31200000000007 607.646 273.50800000000004 L 578.189 230.02 L 569.246 230.02 L 569.246 285.45300000000003 L 576.138 285.45300000000003 L 576.138 245.405 C 576.2083423073608 242.8621081513464 576.0987354853839 240.3174253329493 575.8100000000001 237.79 L 576.056 237.79 C 576.5554354511032 239.01539528747068 577.1882466084804 240.1820884588138 577.943 241.269 L 608.22 285.453 L 616.671 285.453 L 616.671 230.02 L 616.671 230.02000000000004 Z M 697.658 230.02000000000004 L 690.765 230.02000000000004 L 690.765 254.33500000000004 L 660.324 254.33500000000004 L 660.324 230.02 L 653.4319999999999 230.02 L 653.4319999999999 285.45300000000003 L 660.324 285.45300000000003 L 660.324 260.172 L 690.765 260.172 L 690.765 285.45300000000003 L 697.658 285.45300000000003 L 697.658 230.02 L 697.658 230.02000000000004 Z M 706.5 230.02000000000004 L 706.5 235.58700000000005 L 712.243 235.58700000000005 L 712.243 279.88700000000006 L 706.5 279.88700000000006 L 706.5 285.45400000000006 L 724.879 285.45400000000006 L 724.879 279.88700000000006 L 719.135 279.88700000000006 L 719.135 235.58700000000005 L 724.879 235.58700000000005 L 724.879 230.02 L 706.5 230.02 L 706.5 230.02000000000004 Z M 764.9 268.79200000000003 C 764.1066666666666 267.58133333333336 763.3889999999999 266.5183333333334 762.747 265.603 C 762.1490053976365 264.7449421814897 761.498075088512 263.92501713932677 760.798 263.148 C 760.1719506593912 262.45510536141586 759.4777896310297 261.8269432351167 758.726 261.273 C 757.9287813519865 260.7053554647451 757.0683543967524 260.2321877552587 756.162 259.863 L 756.162 259.708 C 758.0445625374015 259.2625148632195 759.8590121997537 258.56700385357044 761.557 257.64000000000004 C 763.0939272191895 256.7998827958344 764.4796744503913 255.7088603410002 765.657 254.41200000000003 C 766.7919167017562 253.15052202703203 767.6823836404282 251.68901688233723 768.283 250.10200000000003 C 768.9140751517481 248.40194638164482 769.2269508424613 246.60028409650468 769.206 244.78700000000003 C 769.257616554675 242.55335213437854 768.7943189341742 240.33780405829614 767.852 238.31200000000004 C 766.9758364139414 236.5020230939615 765.6906323763504 234.9206812060662 764.098 233.69300000000004 C 762.4086887764491 232.41231297858482 760.485782062829 231.47344808371975 758.437 230.92900000000003 C 756.1165384563969 230.304588935141 753.7219109131814 229.9987845204452 751.319 230.02000000000004 L 733.762 230.02000000000004 L 733.762 285.45300000000003 L 740.654 285.45300000000003 L 740.654 261.87300000000005 L 746.316 261.87300000000005 C 747.4864276409261 261.8579098002673 748.6531693708708 262.00737121013793 749.782 262.31700000000006 C 750.8140486423883 262.6168791424964 751.7859272276274 263.09435849076533 752.654 263.72800000000007 C 753.6219397650402 264.4482502909106 754.4969350442799 265.2856258109366 755.259 266.22100000000006 C 756.2155484184217 267.39183444878006 757.0928339061811 268.6252457287826 757.885 269.91300000000007 L 767.731 285.4530000000001 L 775.936 285.4530000000001 L 764.9 268.79200000000003 Z M 750.09 235.89200000000002 C 753.9466666666667 235.89200000000002 756.8936666666667 236.723 758.931 238.38500000000002 C 760.9871436556206 240.08657397285828 762.1201544266651 242.65836387982714 761.988 245.324 C 762.0119267833888 246.85967685529585 761.7049731568434 248.38250790311875 761.0880000000001 249.78900000000002 C 760.5130816591337 251.0807706204972 759.6593221216673 252.22924794973366 758.5880000000001 253.15200000000002 C 757.472497533127 254.09430174527984 756.1837110435744 254.80969034348476 754.7940000000001 255.258 C 753.2510171370328 255.76038214352246 751.6366336555017 256.0086190132368 750.0140000000001 255.99300000000002 L 740.6600000000001 255.99300000000002 L 740.6600000000001 235.9 L 750.0960000000001 235.9 L 750.09 235.89200000000002 Z M 814.3580000000001 279.57300000000004 L 790.07 279.57300000000004 L 790.07 260.17300000000006 L 811.322 260.17300000000006 L 811.322 254.33600000000007 L 790.07 254.33600000000007 L 790.07 235.9 L 813.0450000000001 235.9 L 813.0450000000001 230.02 L 783.178 230.02 L 783.178 285.45300000000003 L 814.358 285.45300000000003 L 814.358 279.57700000000006 L 814.3580000000001 279.57300000000004 Z" style="fill-rule: evenodd; fill: rgb(255, 255, 255);"/></g></svg>