<svg id="Logo_content_copy_2" data-name="Logo content copy 2" xmlns="http://www.w3.org/2000/svg" xmlns:xlink="http://www.w3.org/1999/xlink" width="859" height="331" viewBox="0 0 859 331">
  <metadata><?xpacket begin="﻿" id="W5M0MpCehiHzreSzNTczkc9d"?>
<x:xmpmeta xmlns:x="adobe:ns:meta/" x:xmptk="Adobe XMP Core 5.6-c138 79.159824, 2016/09/14-01:09:01        ">
   <rdf:RDF xmlns:rdf="http://www.w3.org/1999/02/22-rdf-syntax-ns#">
      <rdf:Description rdf:about=""/>
   </rdf:RDF>
</x:xmpmeta>
                                                                                                    
                                                                                                    
                                                                                                    
                                                                                                    
                                                                                                    
                                                                                                    
                                                                                                    
                                                                                                    
                                                                                                    
                                                                                                    
                                                                                                    
                                                                                                    
                                                                                                    
                                                                                                    
                                                                                                    
                                                                                                    
                                                                                                    
                                                                                                    
                                                                                                    
                                                                                                    
                           
<?xpacket end="w"?></metadata>
<defs>
    <style>
      .cls-1, .cls-2, .cls-3 {
        fill: #15612c;
      }

      .cls-1, .cls-2, .cls-3, .cls-4 {
        fill-rule: evenodd;
      }

      .cls-1 {
        filter: url(#filter);
      }

      .cls-2 {
        filter: url(#filter-2);
      }

      .cls-3 {
        filter: url(#filter-3);
      }

      .cls-4 {
        fill: #fff;
      }
    </style>
    <filter id="filter" x="17" y="14" width="231" height="299" filterUnits="userSpaceOnUse">
      <feFlood result="flood" flood-color="#3bb270"/>
      <feComposite result="composite" operator="in" in2="SourceGraphic"/>
      <feBlend result="blend" in2="SourceGraphic"/>
    </filter>
    <filter id="filter-2" x="200.75" y="86.094" width="617.563" height="105.844" filterUnits="userSpaceOnUse">
      <feFlood result="flood" flood-color="#3bb270"/>
      <feComposite result="composite" operator="in" in2="SourceGraphic"/>
      <feBlend result="blend" in2="SourceGraphic"/>
    </filter>
    <filter id="filter-3" x="169" y="203" width="672" height="110" filterUnits="userSpaceOnUse">
      <feFlood result="flood" flood-color="#3bb270"/>
      <feComposite result="composite" operator="in" in2="SourceGraphic"/>
      <feBlend result="blend" in2="SourceGraphic"/>
    </filter>
  </defs>
  <path id="K" class="cls-1" d="M142.783,156.608l96.9-142.617H165.07L88.328,138.677q-5.428,10.844-7.752,16.68H79.607V13.991h-62.6V312.986h62.6V166.616h0.969q5.037,12.72,7.364,16.472l81.006,129.9h79.067S204.605,233,169,190C151.339,168.672,142.783,156.608,142.783,156.608Z"/>
  <path id="ingdom" class="cls-2" d="M200.735,87.8v17.845h9.116v66.669h-9.116v17.845H243.5V172.318h-9.115V105.649H243.5V87.8H200.735Zm150.179,0H327.746v56.6a102.725,102.725,0,0,0,.608,14.062h-0.3q-2.507-4.138-5.469-8.351L279.36,87.8H252.926V190.163h23.168V133.915a163.312,163.312,0,0,0-.608-16.56h0.3a91.455,91.455,0,0,0,5.469,8.494l44.892,64.314h24.763V87.8Zm108.1,44.041H412.676v18.416h21.8v19.987Q429.31,172.6,420.5,172.6q-14.661,0-23.282-8.637T388.6,139.554q0-15.559,9.609-24.876t24.877-9.315q18.231,0,30.84,6.853V90.587q-13.217-4.5-30.536-4.5-27.5,0-44.057,15.2T362.77,140.625q0,23.983,15.154,37.653t41.436,13.67q23.7,0,39.651-8.637V131.845Zm53.558,58.318q26.358,0,42.2-14.276T570.6,137.7q0-49.895-58.034-49.894H473.982V190.163h38.587Zm-2.051-83.586q16.254,0,25.257,8.387t9,23.02q0,15.49-9.077,24.483t-25.029,8.994H498.517V106.577h12Zm156.9,70.6q14.925-14.776,14.926-38.9,0-23.484-14.395-37.832T630.237,86.091q-24.687,0-39.651,14.989t-14.964,39.26q0,22.984,14.736,37.3t38.132,14.312Q652.493,191.948,667.42,177.172ZM649.3,114.785q7.217,8.853,7.216,24.769,0,15.276-7.444,23.877t-20.129,8.6q-12.306,0-19.9-8.851t-7.6-24.055q0-14.989,7.6-24.091t20.51-9.1Q642.087,105.934,649.3,114.785ZM818.32,87.8H783.3l-22.257,60.53a140.444,140.444,0,0,0-4.329,14.776h-0.456a81.333,81.333,0,0,0-3.874-14.633L730.131,87.8H694.2V190.163h22.1V133.558q0-11.419-.987-26.553H716q2.354,11.493,3.418,14.276L745.4,190.163h20.053l25.523-69.6a102.715,102.715,0,0,0,3.418-13.562H795q-0.912,11.993-.912,21.914v61.244H818.32V87.8Z"/>
  <path id="Shape_1_copy_3" data-name="Shape 1 copy 3" class="cls-3" d="M169.01,203.009h672v110h-672v-110Z"/>
  <path id="Car_Van_Hire" data-name="Car &amp; Van Hire" class="cls-4" d="M244.685,276.832a30.369,30.369,0,0,1-15.344,3.711q-9.56,0-15.446-6.011t-5.887-16.138q0-10.669,6.3-17.048t16.431-6.378a29.5,29.5,0,0,1,13.949,3.325v-6.92a36.428,36.428,0,0,0-13.867-2.28q-13.046,0-21.538,8.2t-8.493,21.492q0,12.37,7.549,19.985t20.1,7.615q9.723,0,16.246-3.247v-6.3Zm34.031-46.812h-7.138l-22.564,55.433h7.672l5.866-15.54H287.5l6.236,15.54h7.631ZM264.85,264.076L274,240.457a19.681,19.681,0,0,0,.944-3.711h0.164a21.416,21.416,0,0,0,.9,3.711l9.231,23.619H264.85Zm75.467,4.716q-1.19-1.816-2.154-3.189a25,25,0,0,0-1.948-2.455,13.925,13.925,0,0,0-2.072-1.875,12.671,12.671,0,0,0-2.564-1.41v-0.155a21.675,21.675,0,0,0,5.395-2.068,15.723,15.723,0,0,0,4.1-3.228,13.688,13.688,0,0,0,2.626-4.31,14.782,14.782,0,0,0,.923-5.315,14.555,14.555,0,0,0-1.354-6.475,12.964,12.964,0,0,0-3.754-4.619,16.3,16.3,0,0,0-5.661-2.764,26.493,26.493,0,0,0-7.118-.909H309.179v55.433h6.892v-23.58h5.662a12.494,12.494,0,0,1,3.466.444,9.248,9.248,0,0,1,2.872,1.411,14.61,14.61,0,0,1,2.6,2.493,33.957,33.957,0,0,1,2.626,3.692l9.846,15.54h8.2Zm-14.81-32.9q5.784,0,8.841,2.493a8.463,8.463,0,0,1,3.057,6.939,10.7,10.7,0,0,1-.9,4.465,9.579,9.579,0,0,1-2.5,3.363,11.211,11.211,0,0,1-3.8,2.106,14.964,14.964,0,0,1-4.779.735h-9.354V235.9h9.436Zm110.012,50.175a17.285,17.285,0,0,0,3.1-.812v-5.875q-1.355.463-2.626,0.773a10.576,10.576,0,0,1-2.5.309,8.974,8.974,0,0,1-2.933-.445,8.821,8.821,0,0,1-2.5-1.372,16.445,16.445,0,0,1-2.4-2.3q-1.19-1.371-2.625-3.228a51.066,51.066,0,0,0,3.672-5.527,47.114,47.114,0,0,0,3.056-6.359,45.562,45.562,0,0,0,2.092-6.9,32.94,32.94,0,0,0,.78-7.074q-0.083-1.585-.144-2.725a12.385,12.385,0,0,0-.39-2.416H425.57a23.7,23.7,0,0,1,.513,2.57,19.624,19.624,0,0,1,.185,2.764,35.938,35.938,0,0,1-1.682,11.017,31.786,31.786,0,0,1-5,9.625q-1.643-2.28-3.323-4.407a38.551,38.551,0,0,0-3.631-3.981,30.124,30.124,0,0,0-4.246-3.363,25.149,25.149,0,0,0-5.129-2.551,21.944,21.944,0,0,0,8.431-5.238,11,11,0,0,0,2.81-7.712,10.788,10.788,0,0,0-1.066-4.832,10.986,10.986,0,0,0-2.975-3.711,13.634,13.634,0,0,0-4.553-2.377,19.45,19.45,0,0,0-5.847-.831,21.026,21.026,0,0,0-6.03.831,14.262,14.262,0,0,0-4.841,2.454,11.578,11.578,0,0,0-3.221,3.982,12.952,12.952,0,0,0-.574,9.258,13.619,13.619,0,0,0,1.559,3.208,14.259,14.259,0,0,0,2.195,2.59,22.156,22.156,0,0,0,2.461,1.991,25.736,25.736,0,0,0-10.092,6.861,15.077,15.077,0,0,0-3.569,10.109,15.376,15.376,0,0,0,1.456,6.842,14.031,14.031,0,0,0,4.082,5.006A18.38,18.38,0,0,0,389.8,285.3a29.787,29.787,0,0,0,8.123,1.044,30.245,30.245,0,0,0,6.769-.716,29.873,29.873,0,0,0,5.744-1.913,28.3,28.3,0,0,0,4.779-2.745,29.383,29.383,0,0,0,3.795-3.208q1.559,2.01,2.975,3.6a18.6,18.6,0,0,0,2.933,2.687,12.183,12.183,0,0,0,3.3,1.7,12.929,12.929,0,0,0,4.123.6A19.333,19.333,0,0,0,435.519,286.071Zm-42.728-5.9a12.655,12.655,0,0,1-4.164-2.01,9.516,9.516,0,0,1-2.811-3.344,10.061,10.061,0,0,1-1.025-4.638,12.69,12.69,0,0,1,.9-4.987,11.881,11.881,0,0,1,2.482-3.73,15.774,15.774,0,0,1,3.754-2.783,37.749,37.749,0,0,1,4.759-2.146,39.18,39.18,0,0,1,5.641,2.513,26.127,26.127,0,0,1,4.595,3.247,36.976,36.976,0,0,1,4.267,4.5q2.112,2.61,4.615,6.282a30.506,30.506,0,0,1-3.282,2.957,21.859,21.859,0,0,1-4.02,2.474,24.6,24.6,0,0,1-4.841,1.7,24.337,24.337,0,0,1-5.744.638A18.678,18.678,0,0,1,392.791,280.176Zm12.841-33.089a22.052,22.052,0,0,1-7.713,3.962,14.882,14.882,0,0,1-2.626-1.585,11.236,11.236,0,0,1-2.153-2.126,9.688,9.688,0,0,1-1.436-2.59,8.511,8.511,0,0,1-.513-2.976,7.055,7.055,0,0,1,2.441-5.567,9.559,9.559,0,0,1,6.42-2.048,10.4,10.4,0,0,1,2.831.405,7.762,7.762,0,0,1,2.605,1.295,7.22,7.22,0,0,1,1.928,2.242,6.628,6.628,0,0,1,.759,3.286A7.305,7.305,0,0,1,405.632,247.087ZM505.654,230.02l-16.615,43.874a22.917,22.917,0,0,0-1.354,4.987h-0.164a24.909,24.909,0,0,0-1.19-4.909L470.044,230.02h-7.672l21.333,55.433h7.59L513.08,230.02h-7.426Zm33.129,0h-7.138l-22.564,55.433h7.671l5.867-15.54h24.944l6.236,15.54h7.63Zm-13.866,34.056,9.148-23.619a19.758,19.758,0,0,0,.944-3.711h0.164a21.416,21.416,0,0,0,.9,3.711l9.23,23.619H524.917Zm91.754-34.056h-6.892v39.043a55.374,55.374,0,0,0,.41,8.156h-0.164q-0.534-1.005-2.379-3.711L578.189,230.02h-8.943v55.433h6.892V245.405a53.948,53.948,0,0,0-.328-7.615h0.246a18.031,18.031,0,0,0,1.887,3.479l30.277,44.184h8.451V230.02Zm80.987,0h-6.893v24.315H660.324V230.02h-6.892v55.433h6.892V260.172h30.441v25.281h6.893V230.02Zm8.842,0v5.567h5.743v44.3H706.5v5.567h18.379v-5.567h-5.744v-44.3h5.744V230.02H706.5Zm58.4,38.772q-1.19-1.816-2.153-3.189a25.153,25.153,0,0,0-1.949-2.455,13.925,13.925,0,0,0-2.072-1.875,12.644,12.644,0,0,0-2.564-1.41v-0.155a21.675,21.675,0,0,0,5.395-2.068,15.723,15.723,0,0,0,4.1-3.228,13.688,13.688,0,0,0,2.626-4.31,14.782,14.782,0,0,0,.923-5.315,14.555,14.555,0,0,0-1.354-6.475,12.964,12.964,0,0,0-3.754-4.619,16.3,16.3,0,0,0-5.661-2.764,26.493,26.493,0,0,0-7.118-.909H733.762v55.433h6.892v-23.58h5.662a12.494,12.494,0,0,1,3.466.444,9.248,9.248,0,0,1,2.872,1.411,14.61,14.61,0,0,1,2.605,2.493,33.957,33.957,0,0,1,2.626,3.692l9.846,15.54h8.205Zm-14.81-32.9q5.785,0,8.841,2.493a8.463,8.463,0,0,1,3.057,6.939,10.7,10.7,0,0,1-.9,4.465,9.579,9.579,0,0,1-2.5,3.363,11.215,11.215,0,0,1-3.794,2.106,14.974,14.974,0,0,1-4.78.735h-9.354V235.9h9.436Zm64.268,43.681H790.07v-19.4h21.252v-5.837H790.07V235.9h22.975V230.02H783.178v55.433h31.18v-5.876Z"/>
</svg>
