<svg version="1" xmlns="http://www.w3.org/2000/svg" width="346.667" height="346.667" viewBox="0 0 260.000000 260.000000"><path d="M54.5 131.5V230H81v-47c0-25.9.2-47 .5-47 .2 0 21.5 21.2 47.2 47l46.8 47.1 17.3-.3 17.3-.3-51.9-52.3-52-52.4 7.2-6.8c3.9-3.7 8.7-8.3 10.7-10.2 2-1.8 9.6-8.9 16.9-15.8 7.3-6.9 14.9-14 16.9-15.9 13.1-12.2 30.7-28.8 37.5-35.3l8.1-7.7-17-.1h-17l-6 5.7C160.2 41.8 151.4 50 144 57s-15.1 14.2-17 16c-1.9 1.8-10 9.4-18 17-8 7.5-17.4 16.4-21 19.7l-6.5 6.1-.3-41.4L81 33H54.5v98.5z"/></svg>