<svg version="1" xmlns="http://www.w3.org/2000/svg" width="346.667" height="346.667" viewBox="0 0 260.000000 260.000000"><path d="M43 131v112h14.9c11 0 15-.3 15.3-1.2.2-.7.3-24.8.3-53.6 0-28.7.1-52.2.4-52.2.2 0 24.4 24.1 53.7 53.5l53.3 53.5 19.6-.2 19.7-.3L161 183l-59.1-59.5 7.9-7.5c8.3-7.9 33.3-31.5 39.2-37 1.9-1.8 9.8-9.1 17.4-16.4 7.7-7.2 17.5-16.5 21.9-20.6 4.5-4.1 11.7-11 16.1-15.2l8.1-7.8-19.5.1h-19.5l-9.1 8.7c-15.1 14.4-38.5 36.6-40.8 38.5-1.1 1-5.5 5.1-9.6 9-21.5 20.6-39.3 37.2-39.9 37.5-.4.1-.6-20.4-.6-45.5.1-25.2-.1-46.4-.3-47.1-.3-.9-4.3-1.2-15.3-1.2H43v112z"/></svg>